# xmcd
#
# Track frame offsets: 
#        183
#        11820
#        24493
#        37410
#        50888
#        64173
#        82770
#        94238
#        107660
#        126940
#        137210
#        151705
#        164058
#        177565
#        188298
#        200530
#        216425
#        226008
#        237658
#
# Disc length: 3889 seconds
#
# Revision: 4
# Processed by: cddbd v1.5.2PL0 Copyright (c) Steve Scherf et al.
# Submitted via: ExactAudioCopy v1.0b1
#
DISCID=110f2f13
DTITLE=Sonny Boy Williamson II - The Chess Years Disc 4
DYEAR=1991
DGENRE=Blues
TTITLE0=The Key (To Your Door) (alt) (mono)
TTITLE1=Hurts Me So Much (alt - take 3) (mono)
TTITLE2=Cool Disposition (alt - take 1) (mono)
TTITLE3=Dissatsified (alt - take 3) (mono)
TTITLE4=Cross My Heart (alt - take 3) (mono)
TTITLE5=Ninety Nine (alt - take 2-3) (mono)
TTITLE6=She Got Next To Me (alt) (mono)
TTITLE7=Fattening Frogs For Snakes (alt) (mono)
TTITLE8=Nine Below Zero (alt) (mono)
TTITLE9=Your Funeral And My Trial (alt - take 5) (mono)
TTITLE10=Cool Disposition (alt - take 3) (mono)
TTITLE11=The Goat (alt - take 1) (mono)
TTITLE12=Ninety Nine (alt - take 1) (mono)
TTITLE13=Cross My Heart (alt - take 2) (mono)
TTITLE14=Hurts Me So Much (alt - take 4) (mono)
TTITLE15=Nine Below Zero (alt - take 3) (mono)
TTITLE16=Your Funeral And My Trial (alt - take 2) (mono)
TTITLE17=Checkin' Up On My Baby (alt) (mono)
TTITLE18=Little Village (takes 1-11) (mono)
EXTD=
EXTT0=
EXTT1=
EXTT2=
EXTT3=
EXTT4=
EXTT5=
EXTT6=
EXTT7=
EXTT8=
EXTT9=
EXTT10=
EXTT11=
EXTT12=
EXTT13=
EXTT14=
EXTT15=
EXTT16=
EXTT17=
EXTT18=
PLAYORDER=
